<svg width="88" height="88" viewBox="0 0 88 88" fill="none" xmlns="http://www.w3.org/2000/svg">
<path d="M40 2.3094C42.4752 0.880339 45.5248 0.880339 48 2.3094L78.1051 19.6906C80.5803 21.1197 82.1051 23.7607 82.1051 26.6188V61.3812C82.1051 64.2393 80.5803 66.8803 78.1051 68.3094L48 85.6906C45.5248 87.1197 42.4752 87.1197 40 85.6906L9.89488 68.3094C7.41967 66.8803 5.89488 64.2393 5.89488 61.3812V26.6188C5.89488 23.7607 7.41967 21.1197 9.89488 19.6906L40 2.3094Z" fill="#004CA7"/>
<path d="M46.0183 45.4486L71.8532 29.8711V36.1207L51.1853 48.62V67.369L71.8532 54.8697V61.1193L46.0183 76.6968V45.4486Z" fill="white"/>
<path d="M44.0453 11.3027L70.2385 26.5964L64.9818 29.7101L54.4682 23.5743L38.7886 32.7322L49.2115 38.868L44.0453 41.9816L17.7615 26.5964L44.0453 11.3027ZM44.0453 17.4385L28.275 26.5964L33.5318 29.7101L49.2115 20.4606L44.0453 17.4385Z" fill="white"/>
<path d="M16.1467 29.8711L41.9816 45.4486V76.6968L36.8146 73.6186V48.62L31.6476 45.4486V70.4471L26.4807 67.369V42.3704L21.3137 39.1989V64.1975L16.1467 61.1193V29.8711Z" fill="white"/>
</svg>
